<svg xmlns="http://www.w3.org/2000/svg" viewBox="0 0 512 512">
  <defs>
    <linearGradient id="bg" x1="0" y1="0" x2="1" y2="1">
      <stop offset="0%" stop-color="#1a1028"/>
      <stop offset="100%" stop-color="#2d1b4e"/>
    </linearGradient>
    <linearGradient id="card1" x1="0" y1="0" x2="1" y2="1">
      <stop offset="0%" stop-color="#38ef7d"/>
      <stop offset="100%" stop-color="#11998e"/>
    </linearGradient>
    <linearGradient id="card2" x1="0" y1="0" x2="1" y2="1">
      <stop offset="0%" stop-color="#ff6b4a"/>
      <stop offset="100%" stop-color="#e83e8c"/>
    </linearGradient>
    <linearGradient id="card3" x1="0" y1="0" x2="1" y2="1">
      <stop offset="0%" stop-color="#3b82f6"/>
      <stop offset="100%" stop-color="#1a56db"/>
    </linearGradient>
    <linearGradient id="card4" x1="0" y1="0" x2="1" y2="1">
      <stop offset="0%" stop-color="#fbbf24"/>
      <stop offset="100%" stop-color="#f59e0b"/>
    </linearGradient>
  </defs>

  <!-- Background with rounded corners -->
  <rect width="512" height="512" rx="100" fill="url(#bg)"/>

  <!-- Subtle glow -->
  <circle cx="200" cy="180" r="200" fill="rgba(255,107,74,0.08)"/>
  <circle cx="350" cy="380" r="180" fill="rgba(56,239,125,0.06)"/>

  <!-- Top-left card (green - flipped, showing star) -->
  <g transform="translate(68, 80)">
    <rect width="160" height="160" rx="24" fill="url(#card1)" opacity="0.95"/>
    <rect x="3" y="3" width="154" height="154" rx="21" fill="none" stroke="rgba(255,255,255,0.2)" stroke-width="2"/>
    <text x="80" y="105" text-anchor="middle" font-size="72" fill="white" opacity="0.95">🐾</text>
  </g>

  <!-- Top-right card (pink - flipped, showing heart) -->
  <g transform="translate(284, 80)">
    <rect width="160" height="160" rx="24" fill="url(#card2)" opacity="0.95"/>
    <rect x="3" y="3" width="154" height="154" rx="21" fill="none" stroke="rgba(255,255,255,0.2)" stroke-width="2"/>
    <text x="80" y="105" text-anchor="middle" font-size="72" fill="white" opacity="0.95">❤️</text>
  </g>

  <!-- Bottom-left card (blue - face down) -->
  <g transform="translate(68, 272)">
    <rect width="160" height="160" rx="24" fill="url(#card3)" opacity="0.95"/>
    <rect x="3" y="3" width="154" height="154" rx="21" fill="none" stroke="rgba(255,255,255,0.2)" stroke-width="2"/>
    <text x="80" y="110" text-anchor="middle" font-size="56" font-family="Arial, sans-serif" font-weight="700" fill="rgba(255,255,255,0.7)">?</text>
  </g>

  <!-- Bottom-right card (gold - face down) -->
  <g transform="translate(284, 272)">
    <rect width="160" height="160" rx="24" fill="url(#card4)" opacity="0.95"/>
    <rect x="3" y="3" width="154" height="154" rx="21" fill="none" stroke="rgba(255,255,255,0.2)" stroke-width="2"/>
    <text x="80" y="110" text-anchor="middle" font-size="56" font-family="Arial, sans-serif" font-weight="700" fill="rgba(255,255,255,0.7)">?</text>
  </g>

  <!-- Sparkle effects -->
  <circle cx="248" cy="260" r="6" fill="#ffd166" opacity="0.9"/>
  <circle cx="260" cy="248" r="4" fill="#ffd166" opacity="0.7"/>
  <circle cx="240" cy="245" r="3" fill="#ffd166" opacity="0.6"/>
  <circle cx="255" cy="270" r="3" fill="#ffd166" opacity="0.5"/>
</svg>
