<svg xmlns="http://www.w3.org/2000/svg" viewBox="0 0 120 80">
  <rect width="120" height="40" fill="#EE2536"/>
  <rect y="40" width="120" height="40" fill="#fff"/>
  <circle cx="24" cy="20" r="12" fill="#fff"/>
  <circle cx="27" cy="20" r="10" fill="#EE2536"/>
  <g fill="#fff">
    <polygon points="44,10 45.5,14.5 50,14.5 46.5,17.5 48,22 44,19 40,22 41.5,17.5 38,14.5 42.5,14.5" transform="scale(0.7) translate(20,4)"/>
    <polygon points="44,10 45.5,14.5 50,14.5 46.5,17.5 48,22 44,19 40,22 41.5,17.5 38,14.5 42.5,14.5" transform="scale(0.7) translate(32,0)"/>
    <polygon points="44,10 45.5,14.5 50,14.5 46.5,17.5 48,22 44,19 40,22 41.5,17.5 38,14.5 42.5,14.5" transform="scale(0.7) translate(38,8)"/>
    <polygon points="44,10 45.5,14.5 50,14.5 46.5,17.5 48,22 44,19 40,22 41.5,17.5 38,14.5 42.5,14.5" transform="scale(0.7) translate(28,14)"/>
    <polygon points="44,10 45.5,14.5 50,14.5 46.5,17.5 48,22 44,19 40,22 41.5,17.5 38,14.5 42.5,14.5" transform="scale(0.7) translate(36,14)"/>
  </g>
</svg>
